<svg id="Group_48" data-name="Group 48" xmlns="http://www.w3.org/2000/svg" xmlns:xlink="http://www.w3.org/1999/xlink" width="56.672" height="63.536" viewBox="0 0 56.672 63.536">
  <defs>
    <clipPath id="clip-path">
      <rect id="Rectangle_103" data-name="Rectangle 103" width="56.672" height="63.536" fill="none"/>
    </clipPath>
  </defs>
  <g id="Group_39" data-name="Group 39" transform="translate(0 0)" clip-path="url(#clip-path)">
    <path id="Path_60" data-name="Path 60" d="M45.283,7.913l6.844-.1L52.055,0H38L37.97,8.792s23.46,44.25-8.837,44.25-10.9-44.186-10.9-44.186V0H4.02L4.1,7.726h6.567s-33.362,55.809,17.9,55.809S45.283,7.913,45.283,7.913M6.25,28.784a2.89,2.89,0,0,1,0,5.776,2.89,2.89,0,0,1,0-5.776m0,19.427a3.853,3.853,0,0,1,0-7.7,3.853,3.853,0,0,1,0,7.7M15.45,58.8A3.371,3.371,0,1,1,18.7,55.431,3.312,3.312,0,0,1,15.45,58.8m13.475,2.6a3.371,3.371,0,1,1,3.253-3.369A3.312,3.312,0,0,1,28.925,61.4M41.75,58.8A3.371,3.371,0,1,1,45,55.431,3.312,3.312,0,0,1,41.75,58.8m8.717-30.42a2.89,2.89,0,1,1-2.788,2.888,2.839,2.839,0,0,1,2.788-2.888m.364,19.956a3.853,3.853,0,1,1,3.717-3.851,3.786,3.786,0,0,1-3.717,3.851" transform="translate(0 0)" fill="#fff"/>
  </g>
</svg>
